<?xml version="1.0" standalone="no"?><!DOCTYPE svg PUBLIC "-//W3C//DTD SVG 1.1//EN" "http://www.w3.org/Graphics/SVG/1.1/DTD/svg11.dtd"><svg t="1720418224137" class="icon" viewBox="0 0 1274 1024" version="1.1" xmlns="http://www.w3.org/2000/svg" p-id="57069" xmlns:xlink="http://www.w3.org/1999/xlink" width="318.5" height="256"><path d="M1259.358039 364.504346V321.556908c0-90.488546-74.816024-162.568634-165.220127-162.568634H288.337242c-91.957845 0-165.203239 73.616941-165.203239 162.568634v35.280062c67.01354 24.53898 113.777778 87.431729 113.777778 161.04867S190.147543 654.395329 123.134003 678.917421v171.80664c0 90.488546 74.799136 162.585523 165.203239 162.585523h805.80067c91.957845 0 165.220128-73.63383 165.220127-162.585523V672.803787c-57.674204-29.132651-96.635957-85.894876-96.635957-153.381294s40.532383-125.768608 96.635957-154.918147z" fill="#27D9C1" p-id="57070"></path><path d="M1267.143635 363.102601a16.381838 16.381838 0 0 0 7.802483-14.034338v-168.276945A180.926426 180.926426 0 0 0 1094.137912 0H180.791318A180.926426 180.926426 0 0 0 0 180.791318v160.542015c0 6.231854 4.678113 12.463708 9.356225 14.034338A157.924299 157.924299 0 0 1 113.777778 504.965943a157.941187 157.941187 0 0 1-104.421553 149.632048c-6.231854 1.553741-9.356225 7.785595-9.356225 14.034338v174.576353a180.926426 180.926426 0 0 0 180.791318 180.791318h913.346594a180.926426 180.926426 0 0 0 180.808206-180.791318V662.400475a16.36495 16.36495 0 0 0-7.802483-14.017449C1212.593802 620.331239 1178.310161 565.764518 1178.310161 504.965943c0-59.211057 34.283641-113.777778 88.833474-141.863342z m-120.009632 143.400195c0 68.567282 37.408012 130.919598 96.635957 165.203239V844.762423a149.682714 149.682714 0 0 1-149.632048 149.632049H180.791318a149.665826 149.665826 0 0 1-149.61516-149.632049v-163.649498C101.330958 649.936767 144.953936 582.923227 144.953936 506.553461S101.330958 363.102601 31.176158 331.977108V182.395725a149.648937 149.648937 0 0 1 149.61516-149.632048h913.346594a149.665826 149.665826 0 0 1 149.632048 149.632048v158.971385c-59.227945 32.7299-96.635957 96.635957-96.635957 165.220128z" fill="#46505D" p-id="57071"></path><path d="M475.242195 662.873353h-85.725991v-77.923507h85.725991a9.74466 9.74466 0 1 0 0-19.489321H400.257286l63.31496-79.882572c2.921709-3.884353 2.921709-10.707305-1.942177-13.629014s-10.724193-2.921709-13.645902 1.942176l-69.175268 85.725991-68.195735-85.725991a9.74466 9.74466 0 0 0-15.588079 11.686838l63.331849 79.882572h-75.018686a9.74466 9.74466 0 0 0 0 19.489321h85.725991v77.923507h-85.725991a9.74466 9.74466 0 0 0 0 19.489321h85.725991V770.115284a9.74466 9.74466 0 1 0 19.472432 0v-87.820164h85.725991a9.204229 9.204229 0 0 0 9.744661-9.744661c0-5.843419-2.921709-9.74466-8.765128-9.74466zM684.963502 530.062243a14.490327 14.490327 0 0 0 14.473438 14.473439h296.426831a14.45655 14.45655 0 0 0 0-28.9131H699.43694a14.45655 14.45655 0 0 0-14.473438 14.439661zM1098.275592 718.014283h-501.250474a14.45655 14.45655 0 1 0 0 28.9131h501.250474a14.45655 14.45655 0 0 0 0-28.9131zM597.025118 342.954629h501.250474a14.473439 14.473439 0 0 0 0-28.929989h-501.250474a14.473439 14.473439 0 0 0 0 28.929989z" fill="#46505D" p-id="57072"></path></svg>