<?xml version="1.0" standalone="no"?><!DOCTYPE svg PUBLIC "-//W3C//DTD SVG 1.1//EN" "http://www.w3.org/Graphics/SVG/1.1/DTD/svg11.dtd"><svg t="1720426656193" class="icon" viewBox="0 0 1024 1024" version="1.1" xmlns="http://www.w3.org/2000/svg" p-id="21365" xmlns:xlink="http://www.w3.org/1999/xlink" width="128" height="128"><path d="M37.376 280.32c0-22.272 3.84-38.144 11.008-47.616s23.296-14.08 48.64-14.08H261.12V814.08H188.672c-17.92 0-38.656-0.256-56.064-0.512s-29.184-0.512-35.584-0.512c-21.76 0.768-37.12-2.816-46.08-11.264-8.96-8.192-13.312-24.064-13.312-47.104v-179.968c0-8.96 1.536-15.872 4.352-20.224 2.816-4.608 8.704-7.68 17.408-9.216 3.328 0 7.68-1.28 13.312-3.84s11.264-6.656 16.896-12.032c5.632-5.376 10.496-12.288 14.592-20.992 4.096-8.448 6.144-18.944 6.144-31.488 0-18.944-4.864-33.536-15.104-44.288-9.984-10.752-20.992-16.896-32.256-18.432-8.704-1.536-15.36-4.352-19.2-8.192-4.096-3.84-6.144-10.24-6.144-19.2V256l-0.256 24.32z m933.376 107.776c-9.728 2.56-17.152 7.424-22.528 14.08-5.12 7.168-7.936 14.336-8.448 21.76-0.256 7.424 1.792 14.848 6.144 22.272 4.608 7.424 11.008 12.544 20.224 15.872 7.936 3.328 14.08 8.448 18.176 14.848 4.096 6.656 6.4 13.568 6.656 20.992 0.512 7.424-1.024 14.592-4.352 20.992-3.072 6.656-8.192 11.52-14.592 14.848-20.224 9.984-30.72 22.016-31.232 35.84-1.024 14.08 6.656 25.088 22.784 33.536 7.168 3.328 13.312 8.448 17.408 15.36 4.608 6.912 6.912 14.336 7.424 22.272 0.512 7.68-1.024 14.848-4.352 20.736-3.072 6.4-8.448 10.496-15.616 13.056-9.728 2.56-17.152 6.912-22.528 13.568-5.12 6.4-7.68 13.568-8.192 20.736-0.512 7.68 1.536 14.848 6.144 22.272 4.352 7.424 11.52 15.872 20.992 20.992 6.656 3.328 11.008 8.448 14.08 15.36 2.816 7.168 3.84 13.824 3.072 20.48-1.024 6.656-3.072 12.544-6.912 17.92-3.584 5.376-8.704 8.192-15.104 8.192H335.104V218.624h632.32c6.4 0 11.52 2.56 15.36 7.936 3.584 5.376 5.376 11.264 6.144 17.92 0.512 6.656-1.024-11.264-4.352-4.608-3.072 6.4-8.448 11.264-15.616 13.568-7.168 2.56-13.056 6.656-17.664 12.288-4.608 5.632-6.912 12.288-7.936 18.944-0.768 7.168 1.024 13.824 4.864 20.48 4.096 6.656 11.008 11.52 20.736 14.848 7.168 3.328 13.056 8.192 17.408 14.848 4.352 6.656 6.912 13.312 7.168 20.224 0.512 7.168-1.28 13.568-4.864 19.968-3.84 6.144-9.728 10.496-17.92 13.056z m-291.84 82.688c-3.84 0-8.192-0.512-12.8-1.28-4.352-1.024-5.12-3.328-3.072-7.424 1.024-1.536 4.864-7.424 11.52-17.152 6.912-9.984 14.336-20.48 23.04-31.488 8.448-11.264 16.128-21.76 23.808-31.488 7.168-9.984 11.52-16.128 13.056-18.688 4.096-6.4 1.536-14.336-7.168-23.296-1.536-1.792-4.864-4.096-9.728-7.68-4.608-3.328-9.216-5.632-13.056-7.168-6.656-2.304-11.264-2.816-14.08-1.28-2.56 1.536-6.144 5.376-10.24 11.008-1.536 2.304-5.632 8.448-12.288 17.92-6.4 9.728-13.312 19.712-20.48 30.464s-14.08 20.48-19.968 28.928c-6.144 8.704-9.472 13.824-10.24 15.616-1.536 3.072-4.608 4.608-9.216 3.84-4.352-0.768-7.424-2.816-8.96-6.144-1.024-1.536-4.608-6.4-11.008-14.336-6.4-7.68-13.568-16.384-20.736-26.368-7.168-9.984-14.336-18.944-20.992-27.648-6.912-8.704-11.52-14.592-14.08-17.92-7.168-14.08-14.848-18.432-23.04-13.568-5.632 3.328-10.752 6.656-15.36 10.496-4.352 3.84-8.704 6.912-12.544 9.472-7.936 5.632-9.216 13.056-3.584 22.272 13.568 16.384 25.856 31.744 36.352 45.824 8.96 11.52 17.152 22.528 25.344 33.536 7.936 10.496 12.8 16.64 14.336 18.432 1.792 3.072 0 4.864-4.864 4.864H535.04c-4.096 0-9.984 0.256-17.408 0.512-7.68 0.512-14.848 0.256-21.504-0.512-6.4 0-11.776 1.536-15.872 4.864-3.84 3.072-5.12 7.168-3.584 12.288 0.768 3.328 1.28 8.448 1.28 14.848v15.104c0 4.096 1.024 6.4 3.584 6.656s5.12 0.512 8.448 0.512h70.144c9.472 0 14.336 2.048 14.336 6.144v23.296c0 4.352-0.768 6.4-2.304 6.4h-81.152c-4.864-0.768-7.936 0.512-9.728 3.584-1.536 3.328-2.816 7.168-3.584 11.264-0.768 4.352-0.768 8.192 0 11.52 1.024 3.84 1.024 6.912 1.024 9.216 0 10.752 5.376 16.128 15.872 16.128h72.704c4.096 0 6.4 0.512 7.168 1.792s1.28 4.096 1.28 7.936c0.768 4.096 1.024 11.52 0.512 22.272-0.256 10.752-0.512 17.664-0.512 21.248 0 8.96 5.376 13.568 15.616 13.568h38.912c6.4 0 9.728-2.048 9.728-6.4v-49.152c0-8.448 3.84-12.544 10.752-12.544h11.008c5.632 0 12.032-0.256 18.688-0.768 6.912-0.256 13.568-0.512 19.968-0.512h15.872c11.264 0 17.152-4.096 17.152-12.288v-27.392c0-7.424-4.096-11.264-12.032-11.264h-70.4c-7.936 1.792-12.288 0-12.288-4.864 0-2.304-0.256-5.376-0.512-9.216-0.512-3.84-0.512-6.912-0.512-10.496 0-3.072 1.28-5.632 4.096-7.168 3.072-1.792 5.888-2.56 9.216-2.56h71.424c7.936 0 12.032-2.816 12.032-8.704v-29.696c0-3.328-1.28-6.4-4.352-9.728-2.816-3.328-6.4-4.864-10.24-4.864l-40.96-0.768z" fill="#3ABC82" p-id="21366"></path><path d="M960 834.56H314.624V198.144h652.8c13.056 0 24.32 5.888 32 16.64l0.256 0.512c5.12 7.68 8.192 16.64 9.472 26.88v0.768c1.28 16.384-11.008 22.528-17.664 23.296-1.024 0.256-2.304 0.256-3.584 0.256-3.84 2.816-7.936 4.864-12.544 6.4-3.584 1.28-6.144 3.072-8.448 5.888-1.792 2.048-2.816 4.864-3.328 8.448 0 1.536 0.256 3.84 2.048 7.424 1.792 2.816 6.4 4.864 9.728 5.888l2.048 0.768c10.752 5.12 19.456 12.544 25.856 22.272 6.4 9.984 9.984 20.224 10.496 30.208 0.768 10.752-1.792 20.992-7.424 30.976l-0.512 0.768c-6.4 10.496-16.384 17.664-29.184 21.76l-0.768 0.256c-4.864 1.28-8.704 3.584-11.52 6.656-2.56 3.84-4.096 7.168-4.352 10.496 0 3.328 1.024 6.912 3.328 10.752 1.536 2.56 3.84 5.12 9.728 7.168l1.024 0.256c11.52 4.864 21.248 12.8 27.392 22.784l0.256 0.256c5.888 9.728 9.216 19.968 9.728 30.72 0.768 10.752-1.536 21.504-6.4 30.976-4.864 10.24-13.056 18.432-23.552 24.064l-0.256 0.256c-12.288 6.144-19.712 12.8-19.712 18.176v0.768c-0.256 2.304-0.512 7.424 11.52 13.824 10.752 5.12 19.712 13.056 25.6 22.784 6.144 9.472 9.728 20.224 10.496 32 0.768 11.264-1.536 22.272-6.656 31.488-5.376 10.752-14.336 18.432-26.88 22.784l-1.792 0.512c-7.424 2.048-10.24 4.608-11.776 6.656-2.304 2.816-3.328 5.888-3.584 9.216-0.256 2.304 0 5.12 3.072 9.984l0.256 0.512c3.328 5.632 8.192 10.496 12.8 13.312 10.24 5.376 18.176 13.824 23.296 25.088l0.256 0.768c4.096 10.496 5.632 20.224 4.352 30.208v0.768c-1.536 10.24-4.864 18.944-10.24 26.368-7.68 11.264-19.2 17.408-32.256 17.408z m-604.416-40.96h603.136c1.536-2.304 2.304-4.864 3.072-8.448 0.256-2.048 0.256-5.12-1.536-9.728-1.536-3.328-3.072-4.352-4.352-4.864l-0.512-0.256c-15.36-8.192-24.576-21.248-28.672-28.416-6.912-11.264-9.728-22.272-8.96-34.304 0.768-11.776 5.12-22.784 12.544-32.256 7.936-9.728 18.688-16.64 32.256-20.224 2.816-1.024 3.328-2.048 3.328-2.304l0.512-1.28c1.28-2.304 2.048-5.632 1.792-9.216-0.256-4.608-1.536-8.704-4.096-12.288l-0.512-1.024c-1.792-3.072-4.608-5.376-8.448-7.168l-0.768-0.512c-29.696-15.616-34.816-37.12-33.792-52.736 0.768-15.104 8.704-36.096 42.496-52.992 3.328-1.792 4.608-3.84 5.376-5.12l0.512-0.768c1.536-3.072 2.304-6.656 2.048-10.24v-0.768c0-3.584-1.28-7.168-3.584-10.752-1.792-2.816-4.608-5.12-8.448-6.656-13.312-4.864-23.04-12.8-30.208-24.064l-0.256-0.512c-6.4-10.752-9.216-22.016-8.96-33.28v-0.768c0.768-11.008 4.864-22.016 12.288-32.256l0.768-1.024c8.192-10.24 19.2-17.152 32.768-20.992 4.096-1.28 5.376-2.816 6.144-3.84 2.048-3.84 2.304-6.144 2.048-7.936v-0.768c0-2.816-1.28-5.888-3.84-9.728-2.048-3.072-4.608-5.376-8.192-7.168-13.824-4.864-24.064-12.8-30.208-23.04l-0.256-0.512c-6.144-10.752-8.704-21.76-7.424-32.768v-1.024c1.792-11.264 5.888-20.992 12.288-28.672 4.608-5.632 9.728-9.984 15.872-13.568H356.096V793.6zM281.6 834.56H188.672c-19.456 0-41.472-0.256-56.32-0.512-6.4 0-12.032-0.256-16.896-0.256-8.192-0.256-14.08-0.256-18.176-0.256-27.648 1.024-47.36-4.608-60.416-16.64-13.312-12.288-19.968-32.512-19.968-62.208v-179.968c0-12.8 2.56-23.296 7.424-31.232 5.888-9.728 16.384-15.872 31.232-18.432l1.792-0.256h1.536c0.512 0 2.048-0.512 5.376-2.048 3.328-1.536 7.168-4.352 11.264-8.192 3.84-3.84 7.168-8.704 10.24-14.848 2.816-5.888 4.096-13.312 4.096-22.784 0-18.176-5.376-25.856-9.472-30.208l-0.256-0.256c-4.608-4.864-11.776-11.008-19.968-12.032h-0.768c-13.056-2.304-23.04-6.912-29.952-13.568-8.192-7.936-12.288-19.2-12.288-33.792v-106.496h-0.256v-4.352l0.256-20.224h1.536c2.304-14.848 6.656-26.368 13.568-35.328 15.104-19.968 44.288-22.272 65.024-22.272h184.32V834.56z m-184.832-41.984h0.256c4.096 0 10.496 0 19.2 0.256 4.864 0 10.496 0.256 16.64 0.256 14.848 0.256 36.608 0.512 55.808 0.512H240.64V239.104H97.024c-27.136 0-32.256 5.888-32.256 5.888-1.792 2.304-5.632 9.216-6.656 26.368v115.456c0 2.56 0.256 4.096 0.512 4.864 1.024 0.512 3.328 1.536 7.68 2.304 15.872 2.304 30.976 10.752 44.032 24.576 13.824 14.336 20.736 34.048 20.736 58.368 0 15.616-2.816 29.184-8.192 40.448-4.864 10.496-11.264 19.712-18.944 26.88-7.424 7.168-14.848 12.288-22.528 15.872-7.424 3.328-13.824 5.12-19.456 5.632-1.28 0.256-2.304 0.512-2.816 0.768-0.256 1.28-0.768 3.84-0.768 8.192v179.968c0 24.576 5.632 30.976 6.656 32l0.256 0.256c2.048 2.048 9.216 6.4 31.232 5.632h0.256z m533.504-92.928H591.36c-21.504 0-36.096-13.568-36.096-34.048 0-2.304 0-5.888 0.256-10.752 0-3.072 0.256-6.656 0.256-10.752v-0.512c0.256-4.608 0.256-7.936 0.256-10.496h-61.44c-21.76 0-36.352-14.592-36.352-36.608 0-1.792 0-2.816-0.256-3.84l-0.256-0.768c-1.28-5.888-1.536-12.544-0.256-19.712 1.024-5.888 2.816-11.264 5.12-16.384l1.024-1.792c2.56-4.608 6.144-7.936 10.496-10.496-8.96-3.072-16.64-11.52-16.64-25.856v-15.104c0-5.888-0.512-8.96-0.768-9.984-3.584-12.8 0.512-25.088 10.752-33.28 7.68-6.144 17.408-9.472 28.672-9.472h1.28l1.28 0.256c5.888 0.768 11.776 0.768 17.92 0.512-5.888-7.936-12.032-16.128-18.432-24.32l-0.256-0.256c-9.472-12.8-21.248-27.392-35.584-45.056l-1.024-1.024-0.768-1.28c-11.264-18.176-7.68-37.888 9.216-49.664l0.512-0.256c2.816-2.048 6.656-4.608 10.24-7.68l0.512-0.256c4.864-4.096 10.496-7.936 18.176-12.288 7.936-4.608 16.896-5.888 25.344-3.584 10.24 2.816 18.432 10.752 25.6 23.552 2.048 2.816 6.144 7.936 12.8 16.384l0.256 0.256c1.792 2.56 3.84 4.864 5.632 7.424 5.12 6.656 10.24 13.312 15.616 20.736 6.656 9.472 13.568 17.664 19.712 25.088l0.256 0.256c1.536 2.048 3.072 3.84 4.352 5.376 0.768-1.024 1.536-2.304 2.304-3.328l3.84-5.376c4.864-6.912 10.24-14.848 15.872-23.04 3.072-4.864 6.4-9.472 9.472-13.824 3.84-5.632 7.424-11.008 11.008-16.384l0.256-0.512c6.4-9.216 10.496-15.104 12.032-17.408l0.512-0.768c7.936-10.752 13.056-14.592 16.384-16.64l0.768-0.512c10.752-5.888 22.528-2.816 30.464 0l1.024 0.256c6.144 2.56 12.032 5.632 17.408 9.472l2.304 1.792c4.352 3.328 7.68 5.632 10.496 8.704 21.504 22.528 14.08 40.704 9.472 47.872-1.792 2.816-5.12 7.68-13.824 19.968l-0.512 0.768c-5.632 6.912-11.264 14.592-17.152 22.528-2.048 2.816-4.096 5.632-6.4 8.448l-0.256 0.512c-6.656 8.448-12.544 16.64-18.176 24.576l24.576 0.512c9.728 0 18.688 4.352 25.344 11.776 6.4 6.912 9.472 14.848 9.472 23.296v29.696c0 10.752-5.376 21.248-17.152 26.368 9.984 5.12 16.128 15.36 16.128 27.904v27.392c0 15.104-9.728 32.768-37.632 32.768h-15.872c-5.888 0-12.032 0.256-18.688 0.512h-0.256c-6.912 0.512-13.824 0.768-19.968 0.768h-1.536V673.28c0 12.544-9.472 26.368-30.208 26.368z m-33.792-40.96h23.04v-35.072c0-19.456 12.8-33.024 31.232-33.024h11.008c5.12 0 11.008-0.256 17.152-0.768h1.28c6.912-0.256 13.568-0.512 20.224-0.512h12.544v-9.984h-59.904c-10.24 1.792-18.688 0-25.344-5.12-5.888-4.864-9.472-12.032-9.472-20.224 0-1.024-0.256-3.328-0.256-5.632v-1.536c-0.512-4.864-0.512-8.704-0.512-12.544 0-10.496 5.376-19.968 14.592-25.088 6.144-3.584 12.544-5.12 19.2-5.12H714.24v-12.032l-35.328-0.768c-4.608 0-9.728-0.512-15.872-1.536l-1.28-0.256c-11.008-2.56-15.872-9.728-17.664-13.568-2.304-4.864-4.096-12.8 1.024-22.784l0.512-1.024 1.536-2.304c1.792-2.56 5.376-7.936 11.008-16.128 6.912-10.24 14.592-20.992 23.808-32.512 2.048-2.816 4.096-5.376 6.144-8.192 6.144-8.192 11.776-15.872 17.664-23.04 2.56-3.584 6.656-9.472 9.472-13.312-0.512-0.512-1.024-1.28-1.792-2.048l-0.512-0.512c-0.768-0.768-2.816-2.048-4.352-3.328l-2.304-1.792c-2.56-1.792-5.12-3.072-7.168-4.096-0.512 0.512-0.768 1.024-1.28 1.792-1.792 2.56-5.888 8.704-12.032 17.664-3.584 5.376-7.424 11.008-11.264 16.64-3.072 4.352-6.144 8.96-9.216 13.568-5.888 8.704-11.52 16.64-16.384 23.808l-3.84 5.632c-6.144 8.704-7.936 11.776-8.448 12.544l-0.256 0.512c-5.632 11.52-17.664 17.152-30.976 14.848-10.496-1.792-18.432-7.424-23.04-15.616-1.28-1.536-4.096-5.632-9.216-12.032-6.912-8.192-14.08-16.896-21.504-27.392-4.864-6.912-9.984-13.312-14.848-19.456-2.048-2.56-3.84-4.864-5.632-7.424-6.144-7.68-11.008-14.08-14.08-17.92l-1.28-1.536-0.768-1.792c-0.256-0.512-0.512-1.024-0.768-1.28-2.304 1.536-4.352 3.072-6.144 4.608-3.584 3.072-6.912 5.632-9.728 7.68 13.312 16.128 24.064 29.696 33.024 41.728 8.96 11.776 17.408 22.784 25.6 33.792 8.448 11.264 12.8 16.384 13.568 17.408l1.28 1.28 1.024 1.536c4.352 7.68 4.608 16.384 0.512 23.552-2.56 4.608-8.96 12.032-23.04 12.032h-15.36c-2.816 0-6.912 0.256-11.776 0.256l-4.608 0.256c-6.912 0.512-13.824 0.256-20.736-0.256 0.512 4.096 0.512 8.192 0.512 11.264v1.792h61.696c33.024 0 34.816 22.272 34.816 26.624v23.296c0 21.248-14.336 26.88-22.784 26.88h-74.496v1.28c1.024 3.584 1.28 6.912 1.536 9.472h68.096c4.352 0 17.664 0 24.832 11.776 2.56 4.352 4.096 9.728 4.096 16.64 0.768 5.888 1.024 14.08 0.512 24.832 0 4.096-0.256 7.68-0.256 10.752v2.816z m55.04-113.664z m-6.144-5.888z m77.824-35.072z m-87.04-68.096c-0.256 0-0.256 0 0 0z m-141.568-79.872z m199.424-12.544z" fill="#333333" p-id="21367"></path></svg>